<svg id="visual" viewBox="0 0 9600 5400" width="9600" height="5400" xmlns="http://www.w3.org/2000/svg" xmlns:xlink="http://www.w3.org/1999/xlink" version="1.1"><path d="M0 487L145.5 496C291 505 582 523 872.8 496C1163.7 469 1454.3 397 1745.2 451C2036 505 2327 685 2618 730C2909 775 3200 685 3491 685C3782 685 4073 775 4363.8 820C4654.7 865 4945.3 865 5236.2 793C5527 721 5818 577 6109 532C6400 487 6691 541 6982 577C7273 613 7564 631 7854.8 595C8145.7 559 8436.3 469 8727.2 451C9018 433 9309 487 9454.5 514L9600 541L9600 0L9454.5 0C9309 0 9018 0 8727.2 0C8436.3 0 8145.7 0 7854.8 0C7564 0 7273 0 6982 0C6691 0 6400 0 6109 0C5818 0 5527 0 5236.2 0C4945.3 0 4654.7 0 4363.8 0C4073 0 3782 0 3491 0C3200 0 2909 0 2618 0C2327 0 2036 0 1745.2 0C1454.3 0 1163.7 0 872.8 0C582 0 291 0 145.5 0L0 0Z" fill="#aac9f8"></path><path d="M0 1189L145.5 1243C291 1297 582 1405 872.8 1414C1163.7 1423 1454.3 1333 1745.2 1504C2036 1675 2327 2107 2618 2332C2909 2557 3200 2575 3491 2548C3782 2521 4073 2449 4363.8 2467C4654.7 2485 4945.3 2593 5236.2 2467C5527 2341 5818 1981 6109 1801C6400 1621 6691 1621 6982 1693C7273 1765 7564 1909 7854.8 1882C8145.7 1855 8436.3 1657 8727.2 1774C9018 1891 9309 2323 9454.5 2539L9600 2755L9600 539L9454.5 512C9309 485 9018 431 8727.2 449C8436.3 467 8145.7 557 7854.8 593C7564 629 7273 611 6982 575C6691 539 6400 485 6109 530C5818 575 5527 719 5236.2 791C4945.3 863 4654.7 863 4363.8 818C4073 773 3782 683 3491 683C3200 683 2909 773 2618 728C2327 683 2036 503 1745.2 449C1454.3 395 1163.7 467 872.8 494C582 521 291 503 145.5 494L0 485Z" fill="#97bdf6"></path><path d="M0 2323L145.5 2413C291 2503 582 2683 872.8 2746C1163.7 2809 1454.3 2755 1745.2 2782C2036 2809 2327 2917 2618 3097C2909 3277 3200 3529 3491 3547C3782 3565 4073 3349 4363.8 3394C4654.7 3439 4945.3 3745 5236.2 3736C5527 3727 5818 3403 6109 3223C6400 3043 6691 3007 6982 2917C7273 2827 7564 2683 7854.8 2584C8145.7 2485 8436.3 2431 8727.2 2593C9018 2755 9309 3133 9454.5 3322L9600 3511L9600 2753L9454.5 2537C9309 2321 9018 1889 8727.2 1772C8436.3 1655 8145.7 1853 7854.8 1880C7564 1907 7273 1763 6982 1691C6691 1619 6400 1619 6109 1799C5818 1979 5527 2339 5236.2 2465C4945.3 2591 4654.7 2483 4363.8 2465C4073 2447 3782 2519 3491 2546C3200 2573 2909 2555 2618 2330C2327 2105 2036 1673 1745.2 1502C1454.3 1331 1163.7 1421 872.8 1412C582 1403 291 1295 145.5 1241L0 1187Z" fill="#83b1f4"></path><path d="M0 4375L145.5 4393C291 4411 582 4447 872.8 4555C1163.7 4663 1454.3 4843 1745.2 4825C2036 4807 2327 4591 2618 4519C2909 4447 3200 4519 3491 4573C3782 4627 4073 4663 4363.8 4699C4654.7 4735 4945.3 4771 5236.2 4771C5527 4771 5818 4735 6109 4735C6400 4735 6691 4771 6982 4771C7273 4771 7564 4735 7854.8 4699C8145.7 4663 8436.3 4627 8727.2 4591C9018 4555 9309 4519 9454.5 4501L9600 4483L9600 3509L9454.5 3320C9309 3131 9018 2753 8727.2 2591C8436.3 2429 8145.7 2483 7854.8 2582C7564 2681 7273 2825 6982 2915C6691 3005 6400 3041 6109 3221C5818 3401 5527 3725 5236.2 3734C4945.3 3743 4654.7 3437 4363.8 3392C4073 3347 3782 3563 3491 3545C3200 3527 2909 3275 2618 3095C2327 2915 2036 2807 1745.2 2780C1454.3 2753 1163.7 2807 872.8 2744C582 2681 291 2501 145.5 2411L0 2321Z" fill="#71a0e9"></path><path d="M0 5401L145.5 5401C291 5401 582 5401 872.8 5401C1163.7 5401 1454.3 5401 1745.2 5401C2036 5401 2327 5401 2618 5401C2909 5401 3200 5401 3491 5401C3782 5401 4073 5401 4363.8 5401C4654.7 5401 4945.3 5401 5236.2 5401C5527 5401 5818 5401 6109 5401C6400 5401 6691 5401 6982 5401C7273 5401 7564 5401 7854.8 5401C8145.7 5401 8436.3 5401 8727.2 5401C9018 5401 9309 5401 9454.5 5401L9600 5401L9600 4481L9454.5 4499C9309 4517 9018 4553 8727.2 4589C8436.3 4625 8145.7 4661 7854.8 4697C7564 4733 7273 4769 6982 4769C6691 4769 6400 4733 6109 4733C5818 4733 5527 4769 5236.2 4769C4945.3 4769 4654.7 4733 4363.8 4697C4073 4661 3782 4625 3491 4571C3200 4517 2909 4445 2618 4517C2327 4589 2036 4805 1745.2 4823C1454.3 4841 1163.7 4661 872.8 4553C582 4445 291 4409 145.5 4391L0 4373Z" fill="#608fdd"></path></svg>